<svg xmlns="http://www.w3.org/2000/svg" viewBox="0 0 1014.25 150"><defs><style>.cls-1{fill:#7cad3e;}.cls-2{fill:#fff;}</style></defs><title>logo</title><g id="Layer_2" data-name="Layer 2"><g id="Layer_1-2" data-name="Layer 1"><rect class="cls-1" width="150" height="150" rx="18.75"/><rect class="cls-2" x="48" y="30" width="54" height="18"/><polygon class="cls-2" points="70.77 102 52.77 120 102 120 102 102 70.77 102"/><polygon class="cls-2" points="66 30 48 30 48 115.19 66 97.19 66 30"/><rect class="cls-2" x="48" y="66" width="36" height="18"/><path class="cls-1" d="M225,33.85h55.73V47.76H240.37V70.44h38v13.9h-38V120.2H225Z"/><path class="cls-1" d="M293.66,61.66h14.63v9.27h.25A18.31,18.31,0,0,1,315.49,63a19.19,19.19,0,0,1,10.36-2.8,14.11,14.11,0,0,1,2.62.24c.86.16,1.73.37,2.63.61V75.2c-1.22-.33-2.42-.59-3.6-.8a20.8,20.8,0,0,0-3.48-.3A15.72,15.72,0,0,0,315.79,76,15,15,0,0,0,311,80.32a14.53,14.53,0,0,0-2.19,4.88,18,18,0,0,0-.55,3.65V120.2H293.66Z"/><path class="cls-1" d="M350.61,96.05a14.85,14.85,0,0,0,5.12,10.24A16,16,0,0,0,366.34,110a17.51,17.51,0,0,0,9.21-2.25,25.58,25.58,0,0,0,6.52-5.68L392.56,110a29.74,29.74,0,0,1-11.46,9,34,34,0,0,1-13.3,2.68,34.93,34.93,0,0,1-12.43-2.2,29.09,29.09,0,0,1-16.9-15.91,33.1,33.1,0,0,1,0-25.24,29.07,29.07,0,0,1,16.9-15.92A35.15,35.15,0,0,1,367.8,60.2,28.46,28.46,0,0,1,379,62.33a24,24,0,0,1,8.66,6.16,28.31,28.31,0,0,1,5.61,9.94,42.15,42.15,0,0,1,2,13.59v4Zm30-11q-.12-6.46-4-10.18t-10.85-3.72q-6.59,0-10.43,3.78a16.89,16.89,0,0,0-4.69,10.12Z"/><path class="cls-1" d="M440.12,77.88a13.41,13.41,0,0,0-11.46-6,12.25,12.25,0,0,0-5.74,1.47,5,5,0,0,0-2.8,4.75,4.09,4.09,0,0,0,2.32,3.9,25.11,25.11,0,0,0,5.85,2.08q3.54.86,7.62,1.77a29.91,29.91,0,0,1,7.62,2.8,16.77,16.77,0,0,1,5.86,5.18q2.31,3.3,2.31,9a16.38,16.38,0,0,1-2.25,8.84,17.72,17.72,0,0,1-5.86,5.79,25.71,25.71,0,0,1-8.11,3.17,42.51,42.51,0,0,1-9,1,38.79,38.79,0,0,1-12.56-2,23.77,23.77,0,0,1-10.24-7.08l9.75-9.14a27.42,27.42,0,0,0,6,5.18,14.58,14.58,0,0,0,7.86,2,16,16,0,0,0,3.3-.36,10.87,10.87,0,0,0,3.17-1.22,7.57,7.57,0,0,0,2.38-2.14,5.48,5.48,0,0,0-1.41-7.5,20.42,20.42,0,0,0-5.85-2.37q-3.54-.91-7.62-1.71a29.35,29.35,0,0,1-7.62-2.56,16.11,16.11,0,0,1-5.86-4.94c-1.54-2.12-2.31-5-2.31-8.78a17.13,17.13,0,0,1,2-8.48,17.72,17.72,0,0,1,5.3-5.91,22.88,22.88,0,0,1,7.56-3.42,34.64,34.64,0,0,1,20.25.92,19,19,0,0,1,9.27,6.89Z"/><path class="cls-1" d="M477.68,69.83h.24a17.12,17.12,0,0,1,6-6.65q4.32-3,11.16-3a23,23,0,0,1,9.94,1.95,18.76,18.76,0,0,1,6.64,5.12,19.27,19.27,0,0,1,3.66,7.32,33.73,33.73,0,0,1,1.1,8.65v37H501.82V90.56q0-2.43-.24-5.43a19.46,19.46,0,0,0-1.28-5.61,10.58,10.58,0,0,0-3.23-4.39,9.32,9.32,0,0,0-6-1.76,13.89,13.89,0,0,0-6.16,1.22,11.88,11.88,0,0,0-4.14,3.29,13.12,13.12,0,0,0-2.38,4.75,21.15,21.15,0,0,0-.73,5.61v32H463V28h14.64Z"/><path class="cls-1" d="M570.48,33.85h57.2V47.76H585.85V69h39.63v13.9H585.85v23.41h44V120.2H570.48Z"/><path class="cls-1" d="M703.89,148H689.26V112.76h-.37a20.52,20.52,0,0,1-2.8,3,22,22,0,0,1-4.15,2.87,24.76,24.76,0,0,1-5.61,2.19,28.15,28.15,0,0,1-7.31.86,27.39,27.39,0,0,1-11.47-2.38,26.72,26.72,0,0,1-9-6.52A30.05,30.05,0,0,1,642.8,103a34.36,34.36,0,0,1-2.08-12.07,36.56,36.56,0,0,1,1.95-12.08,27.93,27.93,0,0,1,5.74-9.75,27.23,27.23,0,0,1,9.08-6.53,29.48,29.48,0,0,1,12.14-2.37,27.76,27.76,0,0,1,11.58,2.43,18.87,18.87,0,0,1,8.54,7.81H690V61.66h13.9ZM655.36,90.93a18.85,18.85,0,0,0,1.16,6.58,16.43,16.43,0,0,0,3.41,5.61,16.77,16.77,0,0,0,12.62,5.37,16.77,16.77,0,0,0,12.63-5.37,16.43,16.43,0,0,0,3.41-5.61,19.27,19.27,0,0,0,0-13.17,16.62,16.62,0,0,0-3.41-5.61,17.13,17.13,0,0,0-5.43-3.9,17.31,17.31,0,0,0-19.82,3.9,16.62,16.62,0,0,0-3.41,5.61A18.9,18.9,0,0,0,655.36,90.93Z"/><path class="cls-1" d="M773.89,120.2H760v-9.39h-.24a20.68,20.68,0,0,1-6.35,7.62q-4.26,3.22-11.58,3.23a23.57,23.57,0,0,1-9.94-1.89,18,18,0,0,1-6.65-5.12,20.11,20.11,0,0,1-3.65-7.38,33.32,33.32,0,0,1-1.1-8.66V61.66h14.63V91.29c0,1.63.08,3.44.25,5.43a19.46,19.46,0,0,0,1.28,5.61,10.64,10.64,0,0,0,3.17,4.39,9.19,9.19,0,0,0,6,1.77,14,14,0,0,0,6.16-1.22,11.82,11.82,0,0,0,4.15-3.29,13.33,13.33,0,0,0,2.38-4.76,21.57,21.57,0,0,0,.73-5.61V61.66h14.63Z"/><path class="cls-1" d="M788.65,41.78a8.42,8.42,0,0,1,2.62-6.16A9,9,0,0,1,797.92,33a9.63,9.63,0,0,1,6.76,2.5,8.55,8.55,0,0,1,0,12.56,9.63,9.63,0,0,1-6.76,2.5,9,9,0,0,1-6.65-2.62A8.42,8.42,0,0,1,788.65,41.78Zm2.07,19.88h14.63V120.2H790.72Z"/><path class="cls-1" d="M815.36,74.1V61.66h12.07V44.71h14.63V61.66h16.1V74.1h-16.1V99.71a12.74,12.74,0,0,0,1.65,7q1.65,2.57,6.52,2.56a23.21,23.21,0,0,0,4.27-.43,8.9,8.9,0,0,0,3.66-1.4v12.32a18.83,18.83,0,0,1-5.67,1.52,46.64,46.64,0,0,1-5.92.43,30,30,0,0,1-9.57-1.28,12.63,12.63,0,0,1-5.85-3.9,14.8,14.8,0,0,1-2.93-6.53,45.58,45.58,0,0,1-.79-9V74.1Z"/><path class="cls-1" d="M867.91,41.78a8.42,8.42,0,0,1,2.62-6.16A9,9,0,0,1,877.18,33,9.67,9.67,0,0,1,884,35.5a8.57,8.57,0,0,1,0,12.56,9.67,9.67,0,0,1-6.77,2.5,9,9,0,0,1-6.65-2.62A8.42,8.42,0,0,1,867.91,41.78ZM870,61.66h14.63V120.2H870Z"/><path class="cls-1" d="M913.16,96.05a14.81,14.81,0,0,0,5.12,10.24A16,16,0,0,0,928.89,110a17.53,17.53,0,0,0,9.21-2.25,25.75,25.75,0,0,0,6.52-5.68L955.11,110a29.77,29.77,0,0,1-11.47,9,33.86,33.86,0,0,1-13.29,2.68,35,35,0,0,1-12.44-2.2A29.11,29.11,0,0,1,901,103.55a33.1,33.1,0,0,1,0-25.24,29.39,29.39,0,0,1,6.77-9.7,29.79,29.79,0,0,1,10.12-6.22,35.2,35.2,0,0,1,12.44-2.19,28.53,28.53,0,0,1,11.16,2.13,24,24,0,0,1,8.66,6.16,28.47,28.47,0,0,1,5.61,9.94,42.15,42.15,0,0,1,2,13.59v4Zm30-11q-.12-6.46-4-10.18t-10.85-3.72q-6.59,0-10.43,3.78a16.83,16.83,0,0,0-4.69,10.12Z"/><path class="cls-1" d="M1002.67,77.88a13.42,13.42,0,0,0-11.47-6,12.21,12.21,0,0,0-5.73,1.47,5,5,0,0,0-2.8,4.75A4.1,4.1,0,0,0,985,82a25.37,25.37,0,0,0,5.86,2.08q3.52.86,7.62,1.77a30.05,30.05,0,0,1,7.62,2.8,16.65,16.65,0,0,1,5.85,5.18q2.33,3.3,2.32,9a16.38,16.38,0,0,1-2.25,8.84,17.72,17.72,0,0,1-5.86,5.79,25.81,25.81,0,0,1-8.11,3.17,42.65,42.65,0,0,1-9,1,38.74,38.74,0,0,1-12.56-2,23.79,23.79,0,0,1-10.25-7.08l9.76-9.14a27.42,27.42,0,0,0,6,5.18,14.58,14.58,0,0,0,7.86,2,15.92,15.92,0,0,0,3.29-.36,10.76,10.76,0,0,0,3.17-1.22A7.46,7.46,0,0,0,998.7,107a5.46,5.46,0,0,0-1.4-7.5,20.54,20.54,0,0,0-5.85-2.37q-3.54-.91-7.62-1.71a29.55,29.55,0,0,1-7.63-2.56,16,16,0,0,1-5.85-4.94c-1.55-2.12-2.32-5-2.32-8.78a17,17,0,0,1,2-8.48,17.62,17.62,0,0,1,5.3-5.91,22.7,22.7,0,0,1,7.56-3.42,34.61,34.61,0,0,1,20.24.92,18.9,18.9,0,0,1,9.27,6.89Z"/></g></g></svg>